<svg width="16" height="17" viewBox="0 0 16 17" fill="none" xmlns="http://www.w3.org/2000/svg">
<g clip-path="url(#clip0_9_6395)">
<path d="M15.999 8.08466C16.0042 8.35301 15.8912 8.53415 15.6764 8.63806C15.464 8.74101 15.2483 8.72433 15.0554 8.57704C14.985 8.52318 14.9228 8.45788 14.8601 8.39496C12.6349 6.16658 10.4107 3.9382 8.18599 1.70935C8.06435 1.58732 7.94081 1.58891 7.81537 1.71411C5.57785 3.95632 3.34033 6.19709 1.10423 8.43929C0.956934 8.58705 0.801558 8.70384 0.578709 8.69621C0.350633 8.68811 0.175775 8.59087 0.0731404 8.38876C-0.0299689 8.18475 -0.0280683 7.97455 0.104501 7.78007C0.151066 7.71191 0.210461 7.65233 0.269381 7.5937C2.67463 5.18419 5.08368 2.77897 7.48228 0.362786C7.80824 0.0343686 8.20119 0.0381819 8.51813 0.357066C10.9215 2.77659 13.3343 5.18657 15.7448 7.59894C15.8864 7.74099 16.0133 7.8878 15.999 8.08418V8.08466Z" fill="#7D7D7D"/>
<path d="M8.00385 16.1169C6.85777 16.1169 5.71169 16.1169 4.56561 16.1169C2.98999 16.1169 1.72036 14.8499 1.71941 13.275C1.71846 12.1335 1.71846 10.9919 1.71989 9.85026C1.72036 9.50039 1.94084 9.25634 2.26157 9.24109C2.62221 9.2244 2.88307 9.47179 2.88355 9.84263C2.88593 10.9604 2.88355 12.0782 2.88593 13.1959C2.88593 13.2965 2.89543 13.3976 2.91111 13.4967C3.04463 14.3394 3.72315 14.9434 4.57416 14.9462C6.86062 14.9534 9.14661 14.9543 11.4331 14.9462C12.3839 14.9429 13.1208 14.1826 13.1227 13.2326C13.1251 12.0972 13.1223 10.9613 13.1246 9.82595C13.1251 9.52231 13.3232 9.28923 13.6017 9.24633C13.902 9.20009 14.1614 9.35596 14.2622 9.6391C14.2911 9.72013 14.2888 9.80259 14.2888 9.88553C14.2888 11.039 14.2916 12.1926 14.2883 13.3461C14.2845 14.6602 13.2368 15.8747 11.9391 16.0797C11.7742 16.1059 11.6094 16.1174 11.443 16.1174C10.297 16.1174 9.15089 16.1174 8.0048 16.1174L8.00385 16.1169Z" fill="#7D7D7D"/>
</g>
<defs>
<clipPath id="clip0_9_6395">
<rect width="16" height="16" fill="white" transform="translate(0 0.117188)"/>
</clipPath>
</defs>
</svg>
